<svg xmlns="http://www.w3.org/2000/svg" xmlns:xlink="http://www.w3.org/1999/xlink" width="500" zoomAndPan="magnify" viewBox="0 0 375 374.999991" height="500" preserveAspectRatio="xMidYMid meet" version="1.2"><defs><clipPath id="bb5be67df6"><path d="M 238 198 L 343 198 L 343 359.453125 L 238 359.453125 Z M 238 198 "/></clipPath><clipPath id="2d2357d490"><path d="M 31 69 L 294 69 L 294 359.453125 L 31 359.453125 Z M 31 69 "/></clipPath></defs><g id="1d47bf07d2"><g clip-rule="nonzero" clip-path="url(#bb5be67df6)"><path style=" stroke:none;fill-rule:nonzero;fill:#e7e3dd;fill-opacity:1;" d="M 339.414062 319.242188 L 269.414062 198.03125 L 238.554688 251.546875 L 293.054688 345.96875 C 297.980469 354.503906 306.976562 359.363281 316.234375 359.363281 C 320.765625 359.363281 325.359375 358.179688 329.5625 355.75 C 342.433594 348.332031 346.765625 332.046875 339.414062 319.242188 Z M 339.414062 319.242188 "/></g><g clip-rule="nonzero" clip-path="url(#2d2357d490)"><path style=" stroke:none;fill-rule:nonzero;fill:#e7e3dd;fill-opacity:1;" d="M 290.296875 131.449219 L 260.617188 182.863281 L 229.691406 236.378906 L 181.886719 319.175781 C 167.574219 344 140.847656 359.429688 112.21875 359.429688 C 83.132812 359.429688 57.0625 344.390625 42.488281 319.175781 C 27.910156 294.027344 27.910156 263.890625 42.488281 238.675781 L 126.140625 93.890625 C 134.808594 78.851562 150.371094 69.855469 167.703125 69.855469 C 185.039062 69.855469 200.601562 78.851562 209.335938 93.890625 L 212.355469 99.144531 L 221.023438 114.113281 L 190.09375 167.628906 L 167.703125 128.886719 L 88.910156 265.398438 C 81.882812 277.546875 86.546875 288.316406 88.910156 292.386719 C 91.273438 296.457031 98.234375 305.914062 112.285156 305.914062 C 121.871094 305.914062 130.867188 300.726562 135.597656 292.386719 L 198.828125 182.863281 L 229.753906 129.347656 L 243.9375 104.722656 C 251.359375 91.917969 267.707031 87.519531 280.511719 94.941406 C 293.316406 102.292969 297.714844 118.644531 290.296875 131.449219 Z M 290.296875 131.449219 "/></g><path style=" stroke:none;fill-rule:nonzero;fill:#e7e3dd;fill-opacity:1;" d="M 277.296875 67.886719 C 291.609375 100.128906 339.347656 80.363281 326.738281 47.402344 C 312.359375 15.226562 264.621094 34.992188 277.296875 67.886719 Z M 277.296875 67.886719 "/></g></svg>